<?xml version="1.0" standalone="no"?><!DOCTYPE svg PUBLIC "-//W3C//DTD SVG 1.1//EN" "http://www.w3.org/Graphics/SVG/1.1/DTD/svg11.dtd"><svg t="1763366358660" class="icon" viewBox="0 0 1024 1024" version="1.1" xmlns="http://www.w3.org/2000/svg" p-id="1552" xmlns:xlink="http://www.w3.org/1999/xlink" width="200" height="200"><path d="M931.072 317.056A42.666667 42.666667 0 0 0 896 298.666667H312.874667L263.637333 180.48A85.077333 85.077333 0 0 0 184.874667 128H85.333333v85.333333h99.541334l202.410666 485.76A42.666667 42.666667 0 0 0 426.666667 725.333333h341.333333c17.792 0 33.706667-11.050667 39.978667-27.648l128-341.333333a42.666667 42.666667 0 0 0-4.906667-39.296z" p-id="1553"></path><path d="M448 832m-64 0a64 64 0 1 0 128 0 64 64 0 1 0-128 0Z" p-id="1554"></path><path d="M746.666667 832m-64 0a64 64 0 1 0 128 0 64 64 0 1 0-128 0Z" p-id="1555"></path></svg>